<?xml version="1.0" encoding="UTF-8"?>
<svg width="15px" height="15px" viewBox="0 0 15 15" version="1.1" xmlns="http://www.w3.org/2000/svg" xmlns:xlink="http://www.w3.org/1999/xlink">
    <!-- Generator: Sketch 57.1 (83088) - https://sketch.com -->
    <title>Add@3x</title>
    <desc>Created with Sketch.</desc>
    <g id="RFI" stroke="none" stroke-width="1" fill="none" fill-rule="evenodd">
        <g id="01-Create-RFI-V2.0" transform="translate(-781.000000, -975.000000)">
            <g id="Group-2" transform="translate(365.000000, 939.000000)">
                <g id="Add" transform="translate(411.000000, 32.000000)">
                    <g id="Group-2">
                        <g>
                            <rect id="Rectangle" x="0" y="0" width="24" height="24"></rect>
                            <path d="M18.8072742,10.7403846 L13.5572742,10.7403846 L13.5572742,5.49038462 C13.5572742,5.00913462 13.1635242,4.61538462 12.6822742,4.61538462 C12.2010242,4.61538462 11.8072742,5.00913462 11.8072742,5.49038462 L11.8072742,10.7403846 L6.55727425,10.7403846 C6.07602425,10.7403846 5.68227425,11.1341346 5.68227425,11.6153846 C5.68227425,12.0966346 6.07602425,12.4903846 6.55727425,12.4903846 L11.8072742,12.4903846 L11.8072742,17.7403846 C11.8072742,18.2216346 12.2010242,18.6153846 12.6822742,18.6153846 C13.1635242,18.6153846 13.5572742,18.2216346 13.5572742,17.7403846 L13.5572742,12.4903846 L18.8072742,12.4903846 C19.2885242,12.4903846 19.6822742,12.0966346 19.6822742,11.6153846 C19.6822742,11.1341346 19.2885242,10.7403846 18.8072742,10.7403846 Z" id="Path" stroke="#19659D" stroke-width="0.5" fill="#19659D"></path>
                        </g>
                    </g>
                </g>
            </g>
        </g>
    </g>
</svg>